#!OML:ASF F:\VICON\USERDATA\INSTALL\rory3\rory3.ASF
:FULLY-SPECIFIED
:DEGREES
48
root 0.10698851422272884 17.861858060542705 27.20693812337317 0.5429976260844644 -1.1760252805092208 -0.2551455778635203
lfemur -13.573206164077911 -2.663375441154652 -27.249684748921904
ltibia 44.397311756227055
lfoot -12.00174210632692 -3.217148863385413
ltoes -2.065592248599856
rfemur -31.611553574201572 -7.947239803036213 24.283243009797683
rtibia 133.3424789683433
rfoot 17.925600302363506 -6.672021830075379
rtoes 18.695784967654223
lowerback 16.142270727151338 1.686520277947048 -0.5416074066282512
upperback -0.31696105444639844 2.360978469553473 -0.11932657316389084
thorax -9.792805608817117 1.112235969978144 0.4332915341671311
lowerneck -20.175558062577498 -2.619447285383872 -2.016947233812233
upperneck 13.323417508492664 -3.812106480564389 3.2584535530284304
head 7.598049501343272 -1.480073954725956 0.8678270860809192
lclavicle -1.782462429187474e-15 1.7447293074854208e-15
lhumerus -57.89085215734458 -10.563940836274947 96.81463560893084
lradius 99.63042958583438
lwrist 32.18052679545917
lhand -25.13143614911417 0.914935606919703
lfingers 7.12502
lthumb 1.384672992359867 30.88895171417129
rclavicle -1.782462429187474e-15 1.7447293074854208e-15
rhumerus -48.676447735571855 6.734005165525501 -98.70028045442173
rradius 109.1340470223911
rwrist -9.298070945607812
rhand -16.081567876217182 39.07744310586112
rfingers 7.12502
rthumb 10.121441311184531 9.344683817551612
49
root 0.11310576381627743 17.765660156458907 28.221273448128436 0.8073324535994622 -0.0441693877400241 0.15503258841583767
lfemur -8.25434031000994 -2.770094800016945 -28.139495628637647
ltibia 44.09634565516277
lfoot -15.76684536912307 -2.3279299322144746
ltoes -1.78622148729122
rfemur -40.86303669896823 -9.040196314942381 24.17863470131835
rtibia 126.8555294080753
rfoot 8.567438876538109 -7.389013272810378
rtoes 10.110607857997541
lowerback 16.628977491762654 1.0210836406413168 -1.3109956006522812
upperback -0.10716550309658701 1.3200266555088895 0.13374169978120953
thorax -9.836918078187649 0.6792982948263924 1.4566953732589327
lowerneck -20.07925991425081 -2.406081417060843 -2.2584362315167335
upperneck 13.300626745784983 -3.398864852224019 3.3208670185333298
head 7.577026014142382 -1.3091455315241687 0.9649404584204738
lclavicle -1.5003362997907907e-15 1.9493646508044178e-15
lhumerus -50.57826872265994 -13.760927056365986 97.25168669478582
lradius 101.91675156372213
lwrist 32.69759080140638
lhand -25.063089933221413 1.1957456103560609
lfingers 7.12502
lthumb 1.4506804830160447 31.17306275879633
rclavicle -1.5003362997907907e-15 1.9493646508044178e-15
rhumerus -50.98993192624702 6.516122031740881 -98.25037483781773
rradius 109.1651916359906
rwrist -9.701153202031529
rhand -16.144014940998474 39.13668926580392
rfingers 7.12502
rthumb 10.061089528482567 9.415241686481707
50
root 0.1037629391339169 17.654747638905025 29.432642191827085 1.5673784876633259 1.1272251032434812 0.6245270952987916
lfemur -2.3777532400041057 -2.423342179314155 -28.975915858363216
ltibia 41.943196263043255
lfoot -18.185632110327703 -2.0021303614479287
ltoes -1.9039366714112358
rfemur -47.7111558211151 -8.848678116923503 23.6587755504163
rtibia 111.8563538316651
rfoot 4.73231014400643 -9.027276200102929
rtoes 3.7824506713099506
lowerback 16.742233726884486 0.396709710762549 -2.1556306503276907
upperback -0.12588067053434493 0.33452753488894627 0.388670243628489
thorax -9.83778195132886 0.26986200567707375 2.519108464330706
lowerneck -20.146803651018907 -2.4665875495245047 -2.5239748780884255
upperneck 13.092812262397327 -3.3773920812132845 3.543149129291461
head 7.529839733939858 -1.3045739923216204 1.0928819068860403
lclavicle -1.241003151082358e-15 2.137467499405646e-15
lhumerus -43.04596183809578 -17.08027030204798 97.44688471516665
lradius 105.15198677120642
lwrist 33.75462723435218
lhand -24.99678918779835 1.7445236723747475
lfingers 7.12502
lthumb 1.5146869187467444 31.723493795729432
rclavicle -1.241003151082358e-15 2.137467499405646e-15
rhumerus -53.60006600579263 6.7657622638821415 -97.96889567438946
rradius 109.7822798932964
rwrist -10.442222995191901
rhand -16.22585165205524 39.39057263559275
rfingers 7.12502
rthumb 9.982047191062163 9.665698464798561
51
root 0.0792620243859721 17.56529459369246 30.518310945611674 2.7267200886486265 2.4235226359346087 1.1695646622454352
lfemur 4.072790521017046 -1.7254899412183249 -29.792144570935825
ltibia 36.54288871886306
lfoot -19.525773691718324 -2.2981813099854698
ltoes -3.0563134253030038
rfemur -51.619481853975124 -6.825203279066782 22.40854494314891
rtibia 89.01761561834832
rfoot 4.202508393498852 -12.90931179039017
rtoes -0.8723406919857424
lowerback 16.237029551660946 -0.16042829996725794 -3.1569654938722183
upperback -0.3183899278852119 -0.5739946615735652 0.5320642100971085
thorax -9.704537878737462 -0.10511449936530559 3.516266199692472
lowerneck -20.28625419010972 -2.5904097934581625 -2.7197649437380917
upperneck 12.715860890557538 -3.4950327142077207 3.768679974396978
head 7.452502106979058 -1.3468275611404499 1.1974665754725446
lclavicle -1.322096055850096e-15 2.0786481492770842e-15
lhumerus -35.84909856541867 -19.919840266469926 97.25341490049553
lradius 108.96573385353567
lwrist 35.00869102876472
lhand -24.96405028787975 2.3492378929936315
lfingers 7.12502
lthumb 1.5462609645971446 32.32771345410386
rclavicle -1.322096055850096e-15 2.0786481492770842e-15
rhumerus -56.12036381580898 7.055077805632028 -97.79478810841572
rradius 110.14094905760756
rwrist -11.054282990285865
rhand -16.116491461842667 39.70815103690022
rfingers 7.12502
rthumb 10.087536132765532 10.003436928176352
